# xmcd
#
# Track frame offsets:
# 182
# 19480
# 40610
# 59145
# 82407
# 101535
# 124702
# 139742
# 155662
# 175042
# 189492
#
# Disc length: 2946 seconds
#
#
# Revision: 3
# Processed by: cddbd v1.4PL0 Copyright (c) Steve Scherf et al.
# Submitted via: FreeRIP 2.00 
#
DISCID=9a0b800b
DTITLE=John Mayall - Spinning Coin
DYEAR=1995
DGENRE=Blues
TTITLE0=When The Devil Starts Crying
TTITLE1=Spinning Coin
TTITLE2=Ain't No Brakeman
TTITLE3=Double Life Feelings
TTITLE4=Run
TTITLE5=What Passes For Love
TTITLE6=Fan The Flames
TTITLE7=VooDoo Music
TTITLE8=Long Story Short
TTITLE9=No Big Hurry
TTITLE10=Remembering This
EXTD=YEAR: 1995 ID3G:   0
EXTT0=
EXTT1=
EXTT2=
EXTT3=
EXTT4=
EXTT5=
EXTT6=
EXTT7=
EXTT8=
EXTT9=
EXTT10=
PLAYORDER=
